# Blender 3.3.2
# www.blender.org
mtllib boat.mtl
o boat
v 6.059710 0.995684 -1.172445
v 6.082174 0.053353 -0.625695
v 6.059710 0.995684 1.172445
v 6.082174 0.053353 0.625695
v -6.052486 0.993701 -1.033295
v -6.091088 0.470663 -0.378962
v -6.052486 0.993701 1.033295
v -6.091088 0.470663 0.378962
v -2.434879 -1.064070 -1.843185
v -2.412088 0.995042 1.894104
v -2.434879 -1.064070 1.843185
v -2.412088 0.995042 -1.894104
v 2.859684 -1.064291 1.845321
v 2.834593 0.996220 -1.896083
v 2.859684 -1.064291 -1.845321
v 2.834593 0.996220 1.896083
v 5.556692 1.000000 -1.099025
v 5.556692 0.072291 -0.579793
v 5.556692 1.000000 1.099025
v 5.556692 0.072291 0.579793
v -5.556692 1.000000 -0.955630
v -5.556692 0.486995 -0.340737
v -5.556692 1.000000 0.955630
v -5.556692 0.486995 0.340737
v -2.176880 -1.000000 -1.736971
v -2.176880 1.000000 1.736971
v -2.176880 -1.000000 1.736971
v -2.176880 1.000000 -1.736971
v 2.612703 -1.000000 1.736971
v 2.612703 1.000000 -1.736971
v 2.612703 -1.000000 -1.736971
v 2.612703 1.000000 1.736971
vn -0.3402 -0.2402 0.9092
vn -0.9973 0.0736 -0.0000
vn 0.3277 -0.9448 -0.0000
vn 0.9997 0.0238 -0.0000
vn 0.3124 -0.1806 -0.9326
vn -0.3402 -0.2402 -0.9092
vn -0.3870 -0.9221 -0.0000
vn -0.0004 -0.0247 0.9997
vn 0.3124 -0.1806 0.9326
vn -0.0004 -0.0247 -0.9997
vn -0.0000 -1.0000 -0.0000
vn 0.3430 0.2233 -0.9124
vn 1.0000 -0.0000 -0.0000
vn -0.3422 0.9396 -0.0000
vn -1.0000 -0.0000 -0.0000
vn -0.3151 0.1657 0.9345
vn 0.3430 0.2233 0.9124
vn 0.4027 0.9153 -0.0000
vn -0.0000 -0.0000 -1.0000
vn -0.3151 0.1657 -0.9345
vn -0.0000 -0.0000 1.0000
vn -0.0000 1.0000 -0.0000
vn -0.0066 0.9996 0.0274
vn 0.0086 1.0000 -0.0000
vn -0.0127 0.9999 -0.0000
vn 0.0046 0.9998 -0.0205
vn -0.0001 0.9996 0.0276
vn -0.0066 0.9996 -0.0274
vn -0.0001 0.9996 -0.0276
vn 0.0046 0.9998 0.0205
vt 0.625000 0.500000
vt 0.509036 0.564025
vt 0.625000 0.750000
vt 0.509036 0.685975
vt 0.625000 0.250000
vt 0.375000 0.250000
vt 0.125000 0.500000
vt 0.625000 1.000000
vt 0.625000 0.000000
vt 0.375000 1.000000
vt 0.375000 0.000000
vt 0.125000 0.750000
vt 0.375000 0.326030
vt 0.201030 0.500000
vt 0.625000 0.923970
vt 0.375000 0.923970
vt 0.201030 0.750000
vt 0.625000 0.326030
vt 0.375000 0.816226
vt 0.308774 0.750000
vt 0.625000 0.433774
vt 0.375000 0.433774
vt 0.308774 0.500000
vt 0.625000 0.816226
vt 0.625000 0.500000
vt 0.509036 0.564025
vt 0.625000 0.750000
vt 0.509036 0.685975
vt 0.625000 0.250000
vt 0.375000 0.250000
vt 0.125000 0.500000
vt 0.625000 1.000000
vt 0.625000 0.000000
vt 0.375000 1.000000
vt 0.375000 0.000000
vt 0.125000 0.750000
vt 0.375000 0.326030
vt 0.201030 0.500000
vt 0.625000 0.923970
vt 0.375000 0.923970
vt 0.201030 0.750000
vt 0.625000 0.326030
vt 0.375000 0.816226
vt 0.308774 0.750000
vt 0.625000 0.433774
vt 0.375000 0.433774
vt 0.308774 0.500000
vt 0.625000 0.816226
s 0
usemtl wood
f 11/16/1 10/15/1 7/8/1 8/10/1
f 8/11/2 7/9/2 5/5/2 6/6/2
f 15/23/3 2/2/3 4/4/3 13/20/3
f 2/2/4 1/1/4 3/3/4 4/4/4
f 15/22/5 14/21/5 1/1/5 2/2/5
f 6/6/6 5/5/6 12/18/6 9/13/6
f 6/7/7 9/14/7 11/17/7 8/12/7
f 13/19/8 16/24/8 10/15/8 11/16/8
f 4/4/9 3/3/9 16/24/9 13/19/9
f 9/13/10 12/18/10 14/21/10 15/22/10
f 9/14/11 15/23/11 13/20/11 11/17/11
f 27/40/12 24/34/12 23/32/12 26/39/12
f 24/35/13 22/30/13 21/29/13 23/33/13
f 31/47/14 29/44/14 20/28/14 18/26/14
f 18/26/15 20/28/15 19/27/15 17/25/15
f 31/46/16 18/26/16 17/25/16 30/45/16
f 22/30/17 25/37/17 28/42/17 21/29/17
f 22/31/18 24/36/18 27/41/18 25/38/18
f 29/43/19 27/40/19 26/39/19 32/48/19
f 20/28/20 29/43/20 32/48/20 19/27/20
f 25/37/21 31/46/21 30/45/21 28/42/21
f 25/38/22 27/41/22 29/44/22 31/47/22
f 7/8/23 10/15/23 26/39/23 23/32/23
f 3/3/24 1/1/24 17/25/24 19/27/24
f 5/5/25 7/9/25 23/33/25 21/29/25
f 1/1/26 14/21/26 30/45/26 17/25/26
f 10/15/27 16/24/27 32/48/27 26/39/27
f 12/18/28 5/5/28 21/29/28 28/42/28
f 14/21/29 12/18/29 28/42/29 30/45/29
f 16/24/30 3/3/30 19/27/30 32/48/30
o Plane
v -0.283609 0.000000 1.734000
v 0.283609 0.000000 1.734000
v -0.283609 0.000000 -1.734000
v 0.283609 0.000000 -1.734000
v -0.283609 -0.200000 1.734000
v 0.283609 -0.200000 1.734000
v -0.283609 -0.200000 -1.734000
v 0.283609 -0.200000 -1.734000
vn -0.0000 1.0000 -0.0000
vn -0.0000 -1.0000 -0.0000
vn -1.0000 -0.0000 -0.0000
vn -0.0000 -0.0000 1.0000
vn 1.0000 -0.0000 -0.0000
vn -0.0000 -0.0000 -1.0000
vt 0.000000 0.000000
vt 1.000000 0.000000
vt 0.000000 1.000000
vt 1.000000 1.000000
vt 0.000000 0.000000
vt 1.000000 0.000000
vt 0.000000 1.000000
vt 1.000000 1.000000
s 0
usemtl wood
f 33/49/31 34/50/31 36/52/31 35/51/31
f 37/53/32 39/55/32 40/56/32 38/54/32
f 33/49/33 35/51/33 39/55/33 37/53/33
f 34/50/34 33/49/34 37/53/34 38/54/34
f 36/52/35 34/50/35 38/54/35 40/56/35
f 35/51/36 36/52/36 40/56/36 39/55/36
